/* XPM */
static char *_395cb5faea14b91e8ee07d52adab8fbxSKmexglI2Pu3rWq[] = {
/* columns rows colors chars-per-pixel */
"32 32 24 1 ",
"  c None",
". c black",
"X c #603000",
"o c #600060",
"O c #603060",
"+ c gray25",
"@ c #606060",
"# c gray44",
"$ c #804000",
"% c #800080",
"& c #A000A0",
"* c #806080",
"= c #A078A0",
"- c #C000C0",
"; c #808080",
": c #909090",
"> c #A0A0A0",
", c gray69",
"< c #C090C0",
"1 c #E0A8E0",
"2 c #C0C0C0",
"3 c #D0D0D0",
"4 c gray88",
"5 c white",
/* pixels */
"                                ",
"                                ",
"                                ",
"              $$$               ",
"             >$$$>              ",
"            53XXX,>             ",
"             5342>              ",
"             :;@+:              ",
"             :;@+:              ",
"             ,;@+:        ...   ",
"             ,;@+:       .....  ",
"             ,;@+:      ......  ",
"             ,>@+:     ......   ",
"             ,>@+#   .......    ",
"           ;33>>@+##.......     ",
"          ;1553>@@++#.....      ",
"         ;<1551<*oo++#....      ",
"        ;-=<11<=*%%%&&#...      ",
"        ;O*=<<=*&&&--o#..       ",
"        ;OO****---oooo#..       ",
"        ;oOOOOoooooo&%#..       ",
"        ;%ooo%oooo&%%%#..       ",
"        ;oo%ooo%%%%%&&#.        ",
"        .;ooo%%%%&&&&#..        ",
"        .;%%%%%-&&&&-#..        ",
"        ..:&&&&&&---#..         ",
"         ..::-----##..          ",
"          ...#####...           ",
"            .......             ",
"                                ",
"                                ",
"                                "
};
