/* XPM */
static char *_e1fb83db8ad4b9292bdac91452a8ee8hTSJGMG91OZo1ATB[] = {
/* columns rows colors chars-per-pixel */
"32 32 10 1 ",
"  c #183030",
". c #204040",
"X c #306060",
"o c #608080",
"O c #78A0A0",
"+ c #90C0C0",
"@ c #A8E0E0",
"# c #C0C0FF",
"$ c #FFC0FF",
"% c #C0FFFF",
/* pixels */
"$%%$$$###$$##$#$##%%%%@@@++@@+oo",
"%@@@@+OO+OooooOXoO@@+OOoooo+@O. ",
"%@+@+O++OooXXoOXoo@+OOooXooO++. ",
"#@@+O+O+O+OoXXXoOo+OooXooXO@+O .",
"$++OO++OO+OOXoXoO+OooXXXXXO@OO .",
"#O+O+O+oOooOoXXXoO@OXXoOoOo+O+..",
"$O+O+OOOooooXooXoo%OXoO+%@+OOO  ",
"$+O+oOo+OoOoOOooO@%OoO%%@OoOOOX.",
"#O+OOoOOOOOOoOOo@+OO++OO+OOoOoX ",
"%++O+@++O+OoO+O++OO+O+OOO++O++ .",
"#+@+@+@+@@OO+@+OOO+++OOOooOOoO .",
"%@+@@OOOO++OOOO+O+OO+O++OoooXo. ",
"%@@+O+OOooOO++OO++OOO+O+++OoXX .",
"#+++OOO+OoO+OO+O+@++OoOOO+OOoX .",
"#@+@++OO+ooOO+oo@O++OOooOOoOOo..",
"#+@+@++O+OOoOoXo@OOOOOoO++ooOo .",
"#O+O++O+O++OooOO+++O+oOoOO+OOoX.",
"#+++O++O+OOOO+@+OOOOOOOOOO+oOOX ",
"%O+O++OOOOO+O+OOO+O+O+OoO+OO++..",
"#+O+O+OOoO+O+OOooOo+@O+OO+oO+O. ",
"%O+OOOOooOooO+OoXXo@OO+OOOOOO+. ",
"#OO+OoOoXoOOOOOOoXo@+OOo+O++OO. ",
"#+O+OOoOOXoOoOO+++@O+oOOOOOO+o..",
"%+OOoOooXOoOOOooOOO+OooOOoOooX..",
"#@++OoOoXoOoOoOoooOOOOO+OooXXo. ",
"#O+OOoOOoooXoOooOOoOO+O++OOOo+. ",
"@oOOoOoOOOXXXoOo++o+OO+O++oO+@..",
"@OooOOooO+oXoXO++OO+O+OOOOO+@O. ",
"@oOOooXoo+OoXoO++@@OOOOooOoOOo..",
"+oOoOoXooO+OooOoOOOOOoXoOOoooX. ",
"o... X. . . . . .XX. .. . .  .. ",
"o.  ..  .  .    .. ...   .     ."
};
